<?xml version="1.0" encoding="UTF-8"?>
<svg width="15px" height="17px" viewBox="0 0 15 17" version="1.1" xmlns="http://www.w3.org/2000/svg" xmlns:xlink="http://www.w3.org/1999/xlink">
    <!-- Generator: Sketch 41.2 (35397) - http://www.bohemiancoding.com/sketch -->
    <title></title>
    <desc>Created with Sketch.</desc>
    <defs></defs>
    <g id="Symbols" stroke="none" stroke-width="1" fill="none" fill-rule="evenodd">
        <g id="Input-(Date)-White-Bg-–-40px" transform="translate(-396.000000, -12.000000)" fill="#666B6F">
            <g id="Input-White-Bg-–-40px">
                <path d="M397.285714,27.1428571 L409.857143,27.1428571 L409.857143,18 L397.285714,18 L397.285714,27.1428571 Z M400.714286,16.2857143 L400.714286,13.7142857 C400.714286,13.630952 400.6875,13.5625003 400.633929,13.5089286 C400.580357,13.4553569 400.511905,13.4285714 400.428571,13.4285714 L399.857143,13.4285714 C399.773809,13.4285714 399.705357,13.4553569 399.651786,13.5089286 C399.598214,13.5625003 399.571429,13.630952 399.571429,13.7142857 L399.571429,16.2857143 C399.571429,16.369048 399.598214,16.4374997 399.651786,16.4910714 C399.705357,16.5446431 399.773809,16.5714286 399.857143,16.5714286 L400.428571,16.5714286 C400.511905,16.5714286 400.580357,16.5446431 400.633929,16.4910714 C400.6875,16.4374997 400.714286,16.369048 400.714286,16.2857143 Z M407.571429,16.2857143 L407.571429,13.7142857 C407.571429,13.630952 407.544643,13.5625003 407.491071,13.5089286 C407.4375,13.4553569 407.369048,13.4285714 407.285714,13.4285714 L406.714286,13.4285714 C406.630952,13.4285714 406.5625,13.4553569 406.508929,13.5089286 C406.455357,13.5625003 406.428571,13.630952 406.428571,13.7142857 L406.428571,16.2857143 C406.428571,16.369048 406.455357,16.4374997 406.508929,16.4910714 C406.5625,16.5446431 406.630952,16.5714286 406.714286,16.5714286 L407.285714,16.5714286 C407.369048,16.5714286 407.4375,16.5446431 407.491071,16.4910714 C407.544643,16.4374997 407.571429,16.369048 407.571429,16.2857143 Z M411,15.7142857 L411,27.1428571 C411,27.4523825 410.886906,27.720237 410.660714,27.9464286 C410.434523,28.1726202 410.166668,28.2857143 409.857143,28.2857143 L397.285714,28.2857143 C396.976189,28.2857143 396.708334,28.1726202 396.482143,27.9464286 C396.255951,27.720237 396.142857,27.4523825 396.142857,27.1428571 L396.142857,15.7142857 C396.142857,15.4047604 396.255951,15.1369059 396.482143,14.9107143 C396.708334,14.6845227 396.976189,14.5714286 397.285714,14.5714286 L398.428571,14.5714286 L398.428571,13.7142857 C398.428571,13.3214266 398.568451,12.9851204 398.848214,12.7053571 C399.127978,12.4255938 399.464284,12.2857143 399.857143,12.2857143 L400.428571,12.2857143 C400.821431,12.2857143 401.157737,12.4255938 401.4375,12.7053571 C401.717263,12.9851204 401.857143,13.3214266 401.857143,13.7142857 L401.857143,14.5714286 L405.285714,14.5714286 L405.285714,13.7142857 C405.285714,13.3214266 405.425594,12.9851204 405.705357,12.7053571 C405.98512,12.4255938 406.321427,12.2857143 406.714286,12.2857143 L407.285714,12.2857143 C407.678573,12.2857143 408.01488,12.4255938 408.294643,12.7053571 C408.574406,12.9851204 408.714286,13.3214266 408.714286,13.7142857 L408.714286,14.5714286 L409.857143,14.5714286 C410.166668,14.5714286 410.434523,14.6845227 410.660714,14.9107143 C410.886906,15.1369059 411,15.4047604 411,15.7142857 Z" id=""></path>
            </g>
        </g>
    </g>
</svg>