<?xml version="1.0" encoding="UTF-8"?>
<svg width="16px" height="17px" viewBox="0 0 16 17" version="1.1" xmlns="http://www.w3.org/2000/svg" xmlns:xlink="http://www.w3.org/1999/xlink">
    <!-- Generator: Sketch 41.2 (35397) - http://www.bohemiancoding.com/sketch -->
    <title>Facebook Icon</title>
    <desc>Created with Sketch.</desc>
    <defs></defs>
    <g id="Chef---Homepage-&amp;-Sign-Up" stroke="none" stroke-width="1" fill="none" fill-rule="evenodd">
        <g id="Chef---Start-Page" transform="translate(-729.000000, -590.000000)" fill="#FFFFFF">
            <g id="Header-w-Image">
                <g id="Group-5" transform="translate(609.000000, 584.000000)">
                    <g id="Facebook" transform="translate(105.000000, 0.000000)">
                        <g id="Group" transform="translate(15.000000, 3.000000)">
                            <path d="M14.8604911,3.85714286 C15.0948672,3.85714286 15.2957581,3.94084738 15.4631696,4.10825893 C15.6305812,4.27567048 15.7142857,4.47656133 15.7142857,4.7109375 L15.7142857,18.4319196 C15.7142857,18.6662958 15.6305812,18.8671867 15.4631696,19.0345982 C15.2957581,19.2020098 15.0948672,19.2857143 14.8604911,19.2857143 L10.9330357,19.2857143 L10.9330357,13.3091518 L12.9319196,13.3091518 L13.2332589,10.9787946 L10.9330357,10.9787946 L10.9330357,9.4921875 C10.9330357,9.11718563 11.011718,8.83593844 11.1690848,8.6484375 C11.3264517,8.46093656 11.6328102,8.3671875 12.0881696,8.3671875 L13.3136161,8.35714286 L13.3136161,6.27790179 C12.891739,6.21763363 12.2957628,6.1875 11.5256696,6.1875 C10.6149508,6.1875 9.88672148,6.45535446 9.34095982,6.99107143 C8.79519816,7.52678839 8.52232143,8.28347725 8.52232143,9.26116071 L8.52232143,10.9787946 L6.51339286,10.9787946 L6.51339286,13.3091518 L8.52232143,13.3091518 L8.52232143,19.2857143 L1.13950893,19.2857143 C0.905132757,19.2857143 0.704241908,19.2020098 0.536830357,19.0345982 C0.369418806,18.8671867 0.285714286,18.6662958 0.285714286,18.4319196 L0.285714286,4.7109375 C0.285714286,4.47656133 0.369418806,4.27567048 0.536830357,4.10825893 C0.704241908,3.94084738 0.905132757,3.85714286 1.13950893,3.85714286 L14.8604911,3.85714286 Z" id="Facebook-Icon"></path>
                        </g>
                    </g>
                </g>
            </g>
        </g>
    </g>
</svg>