<?xml version="1.0" encoding="UTF-8"?>
<svg width="90px" height="88px" viewBox="0 0 90 88" version="1.1" xmlns="http://www.w3.org/2000/svg" xmlns:xlink="http://www.w3.org/1999/xlink">
    <!-- Generator: Sketch 41.2 (35397) - http://www.bohemiancoding.com/sketch -->
    <title>Get Money Icon</title>
    <desc>Created with Sketch.</desc>
    <defs></defs>
    <g id="Chef---Homepage-&amp;-Sign-Up" stroke="none" stroke-width="1" fill="none" fill-rule="evenodd">
        <g id="Chef---Start-Page" transform="translate(-675.000000, -761.000000)" fill="#666B6F">
            <g id="Get-Money-Icon" transform="translate(675.000000, 760.000000)">
                <g transform="translate(0.000000, 1.000000)" id="Shape">
                    <path d="M89.1855,52.9775 C86.556,49.3145 83.8905,49.256 77.217,52.7675 L64.2825,60.6755 C62.3655,61.6955 58.431,62.0015 54.615,62.066 C55.293,60.6545 54.99,58.97 53.709,57.056 C52.5225,55.286 50.907,53.879 49.032,52.9175 C52.14,50.3915 54,46.631 54,42.4985 C54,35.0555 47.9445,28.9985 40.5,28.9985 C33.0555,28.9985 27,35.0555 27,42.4985 C27,44.72 27.552,46.841 28.5405,48.7325 C28.521,48.719 28.5,48.707 28.482,48.692 C23.097,44.6315 14.1,44.0585 10.5015,43.997 L10.5015,39.4565 L0,39.4565 L0,87.4985 L10.5,87.4985 L10.5,82.9985 L30,82.9985 C33.06,82.9985 36.147,82.7645 39.174,82.3055 L58.6185,79.349 C59.3265,79.34 60.0435,79.256 60.6825,79.112 C62.4735,78.86 64.185,78.005 65.6355,76.637 L88.371,58.931 L88.4055,58.9025 C90.177,57.437 90.519,54.833 89.1855,52.9775 Z M34.755,51.272 C31.7715,49.319 30,46.061 30,42.4985 C30,36.7085 34.7115,31.9985 40.5,31.9985 C46.2885,31.9985 51,36.7085 51,42.4985 C51,46.3775 48.9135,49.862 45.522,51.707 C45.336,51.671 45.147,51.653 44.9595,51.6245 C44.772,51.596 44.5875,51.563 44.397,51.542 C43.9095,51.488 43.419,51.455 42.927,51.455 L37.077,51.455 C36.3225,51.4565 35.5425,51.395 34.755,51.272 Z M7.5,84.4985 L3,84.4985 L3,42.4565 L7.5,42.4565 L7.5,44.048 L7.5,83 L7.5,84.4985 Z M86.508,56.5805 L63.7335,74.315 L63.618,74.4155 C62.613,75.377 61.4535,75.974 60.117,76.1675 C59.571,76.289 59.0265,76.3505 58.5,76.3505 L38.7225,79.34 C35.844,79.778 32.9085,80 30,80 L10.5,80 L10.5,47.0015 C13.8255,47.0705 22.059,47.6075 26.676,51.0875 C28.68,52.5995 31.0815,53.6255 33.6435,54.1175 L33.666,54.131 L33.951,54.1805 C33.966,54.1835 33.9795,54.1835 33.9945,54.1865 C34.4865,54.2705 34.9845,54.338 35.487,54.3815 C35.5035,54.383 35.52,54.386 35.535,54.3875 C36.045,54.431 36.558,54.4565 37.0755,54.4565 L42.9255,54.4565 C43.7505,54.4565 44.5755,54.554 45.3765,54.746 L45.4725,54.77 C47.832,55.355 49.8825,56.7425 51.213,58.727 C51.8445,59.6675 52.0935,60.449 51.882,60.8165 C51.4815,61.5095 49.623,61.9355 47.7375,62.018 C47.124,62.0075 46.5645,62 46.074,62 L31.5,62 C26.8035,62 24,64.2425 24,68 C24,68.828 24.6705,69.5 25.5,69.5 C26.3295,69.5 27,68.828 27,68 C27,67.2575 27,65 31.5,65 L46.041,65 C46.3815,65.021 47.0355,65.0495 47.859,65.0195 C48.117,65.024 48.384,65.0285 48.657,65.033 C55.6965,65.1635 62.298,65.1275 65.769,63.2795 L78.696,55.3745 C84.882,52.124 85.5045,52.9955 86.7465,54.7265 C87.162,55.3025 87.0555,56.114 86.508,56.5805 Z"></path>
                    <path d="M48,42.4985 C48,38.363 44.6355,34.9985 40.5,34.9985 C36.3645,34.9985 33,38.363 33,42.4985 C33,46.634 36.3645,49.9985 40.5,49.9985 C44.6355,49.9985 48,46.634 48,42.4985 Z M40.5,46.9985 C38.019,46.9985 36,44.9795 36,42.4985 C36,40.0175 38.019,37.9985 40.5,37.9985 C42.981,37.9985 45,40.0175 45,42.4985 C45,44.9795 42.981,46.9985 40.5,46.9985 Z"></path>
                    <path d="M63,27.4985 C70.4445,27.4985 76.5,21.4415 76.5,13.9985 C76.5,6.5555 70.4445,0.4985 63,0.4985 C55.5555,0.4985 49.5,6.5555 49.5,13.9985 C49.5,21.4415 55.5555,27.4985 63,27.4985 Z M63,3.4985 C68.7885,3.4985 73.5,8.2085 73.5,13.9985 C73.5,19.7885 68.7885,24.4985 63,24.4985 C57.2115,24.4985 52.5,19.7885 52.5,13.9985 C52.5,8.2085 57.2115,3.4985 63,3.4985 Z"></path>
                    <path d="M63,21.4985 C67.1355,21.4985 70.5,18.134 70.5,13.9985 C70.5,9.863 67.1355,6.4985 63,6.4985 C58.8645,6.4985 55.5,9.863 55.5,13.9985 C55.5,18.134 58.8645,21.4985 63,21.4985 Z M63,9.4985 C65.481,9.4985 67.5,11.5175 67.5,13.9985 C67.5,16.4795 65.481,18.4985 63,18.4985 C60.519,18.4985 58.5,16.4795 58.5,13.9985 C58.5,11.5175 60.519,9.4985 63,9.4985 Z"></path>
                </g>
            </g>
        </g>
    </g>
</svg>