<?xml version="1.0" encoding="UTF-8"?>
<svg width="16px" height="17px" viewBox="0 0 16 17" version="1.1" xmlns="http://www.w3.org/2000/svg" xmlns:xlink="http://www.w3.org/1999/xlink">
    <!-- Generator: Sketch 41.2 (35397) - http://www.bohemiancoding.com/sketch -->
    <title>Google Icon</title>
    <desc>Created with Sketch.</desc>
    <defs></defs>
    <g id="Chef---Homepage-&amp;-Sign-Up" stroke="none" stroke-width="1" fill="none" fill-rule="evenodd">
        <g id="Chef---Start-Page" transform="translate(-624.000000, -590.000000)" fill="#FFFFFF">
            <g id="Header-w-Image">
                <g id="Group-5" transform="translate(609.000000, 584.000000)">
                    <g id="Google-Sign-Up">
                        <g id="Group" transform="translate(15.000000, 3.000000)">
                            <path d="M8,10.4665179 L15.2823661,10.4665179 C15.3627236,10.9151808 15.4029018,11.343748 15.4029018,11.7522321 C15.4029018,13.2053644 15.0982173,14.5027845 14.4888393,15.6445313 C13.8794612,16.786278 13.0106083,17.6785682 11.8822545,18.3214286 C10.7539006,18.9642889 9.45982873,19.2857143 8,19.2857143 C6.94865546,19.2857143 5.9475494,19.0831493 4.99665179,18.6780134 C4.04575417,18.2728774 3.22544988,17.7254499 2.53571429,17.0357143 C1.84597869,16.3459787 1.29855113,15.5256744 0.893415179,14.5747768 C0.488279224,13.6238792 0.285714286,12.6227731 0.285714286,11.5714286 C0.285714286,10.520084 0.488279224,9.51897797 0.893415179,8.56808036 C1.29855113,7.61718275 1.84597869,6.79687845 2.53571429,6.10714286 C3.22544988,5.41740727 4.04575417,4.8699797 4.99665179,4.46484375 C5.9475494,4.0597078 6.94865546,3.85714286 8,3.85714286 C10.0089386,3.85714286 11.7332517,4.5301272 13.1729911,5.87611607 L11.0736607,7.89508929 C10.2499959,7.0982103 9.22545256,6.69977679 8,6.69977679 C7.1361564,6.69977679 6.33761527,6.91740854 5.60435268,7.35267857 C4.87109008,7.7879486 4.29018071,8.37890252 3.86160714,9.12555804 C3.43303357,9.87221355 3.21875,10.6874956 3.21875,11.5714286 C3.21875,12.4553616 3.43303357,13.2706436 3.86160714,14.0172991 C4.29018071,14.7639546 4.87109008,15.3549085 5.60435268,15.7901786 C6.33761527,16.2254486 7.1361564,16.4430804 8,16.4430804 C8.5825922,16.4430804 9.11830113,16.362724 9.60714286,16.2020089 C10.0959846,16.0412938 10.4977663,15.840403 10.8125,15.5993304 C11.1272337,15.3582577 11.4017845,15.0837069 11.6361607,14.7756696 C11.8705369,14.4676324 12.0429682,14.1763407 12.1534598,13.9017857 C12.2639514,13.6272308 12.3392855,13.3660727 12.3794643,13.1183036 L8,13.1183036 L8,10.4665179 Z" id="Google-Icon"></path>
                        </g>
                    </g>
                </g>
            </g>
        </g>
    </g>
</svg>