<?xml version="1.0" encoding="UTF-8"?>
<svg width="90px" height="90px" viewBox="0 0 90 90" version="1.1" xmlns="http://www.w3.org/2000/svg" xmlns:xlink="http://www.w3.org/1999/xlink">
    <!-- Generator: Sketch 41.2 (35397) - http://www.bohemiancoding.com/sketch -->
    <title>rest</title>
    <desc>Created with Sketch.</desc>
    <defs>
        <path d="M89.5517578,25.0280859 L83.7645117,15.4103906 L83.7645117,7.28033203 C83.7645117,3.34335938 80.6405273,0.0490429688 76.7032031,0.0490429688 L13.2967969,0.0490429688 C9.35982422,0.0490429688 6.23548828,3.34318359 6.23548828,7.28033203 L6.23548828,15.4103906 L0.448242187,25.0280859 C-0.122871094,25.9838086 -0.15609375,27.1891406 0.393398437,28.1576953 C0.942714844,29.1258984 1.95029297,29.7411328 3.06386719,29.7411328 L6.23566406,29.7411328 L6.23566406,62.3197266 L5.12578125,62.3197266 C3.41771484,62.3197266 2.03291016,63.7045313 2.03291016,65.4125977 C2.03291016,67.1206641 3.41771484,68.5054688 5.12578125,68.5054688 L84.8743945,68.5054688 C86.5824609,68.5054688 87.9672656,67.1206641 87.9672656,65.4125977 C87.9672656,63.7045313 86.5824609,62.3197266 84.8743945,62.3197266 L83.7645117,62.3197266 L83.7645117,29.7411328 L86.9363086,29.7411328 C88.0495312,29.7411328 89.0574609,29.1260742 89.6067773,28.1576953 C90.155918,27.1894922 90.1226953,25.9838086 89.5517578,25.0280859 Z M12.421582,7.28033203 C12.4214062,6.75404297 12.7706836,6.23496094 13.2967969,6.23496094 L76.7032031,6.23496094 C77.2294922,6.23496094 77.5787695,6.75421875 77.5787695,7.28033203 L77.5787695,13.2454688 L12.421582,13.2454688 L12.421582,7.28033203 Z M24.5866992,62.3197266 L12.4214062,62.3197266 L12.4214062,29.7411328 L24.586875,29.7411328 L24.586875,62.3197266 L24.5866992,62.3197266 Z M73.042207,62.3197266 L73.042207,56.7028125 L76.0325977,46.2524414 C76.5024609,44.6101172 75.5521875,42.897832 73.9100391,42.4279688 C72.2677148,41.9582813 70.5554297,42.9083789 70.0855664,44.5505273 L67.1248828,54.8966602 L64.5883594,54.8966602 C62.880293,54.8966602 61.4954883,56.2814648 61.4954883,57.9895313 C61.4954883,59.4116016 62.4564844,60.6063867 63.7635937,60.967793 L63.7635937,62.3195508 L57.784043,62.3195508 L57.784043,54.0718945 L61.0831055,54.0718945 C62.7911719,54.0718945 64.1759766,52.6870898 64.1759766,50.9790234 C64.1759766,49.270957 62.7911719,47.8861523 61.0831055,47.8861523 L48.2990625,47.8861523 C46.5909961,47.8861523 45.2061914,49.270957 45.2061914,50.9790234 C45.2061914,52.6870898 46.5909961,54.0718945 48.2990625,54.0718945 L51.598125,54.0718945 L51.598125,62.3195508 L45.4123828,62.3195508 L45.4123828,60.967793 C46.7194922,60.6063867 47.6804883,59.4116016 47.6804883,57.9895313 C47.6804883,56.2814648 46.2956836,54.8966602 44.5876172,54.8966602 L42.0510937,54.8966602 L39.0904102,44.5505273 C38.6205469,42.9083789 36.9087891,41.9582813 35.2659375,42.4279688 C33.6237891,42.897832 32.6735156,44.6101172 33.1433789,46.2524414 L36.1337695,56.7028125 L36.1337695,62.3197266 L30.772793,62.3197266 L30.772793,29.7411328 L51.5983008,29.7411328 L51.5983008,32.1141797 L46.663418,37.2737109 C46.0342969,37.9318359 46.5006445,39.0197461 47.4113672,39.0197461 L61.9711523,39.0197461 C62.8816992,39.0197461 63.3480469,37.9318359 62.7191016,37.2737109 L57.7842187,32.1141797 L57.7842187,29.7411328 L77.5787695,29.7411328 L77.5787695,62.3197266 L73.042207,62.3197266 Z M8.51537109,23.5552148 L11.0042578,19.4313867 L78.9955664,19.4313867 L81.4844531,23.5552148 L8.51537109,23.5552148 Z" id="path-1"></path>
        <mask id="mask-2" maskContentUnits="userSpaceOnUse" maskUnits="objectBoundingBox" x="0" y="0" width="90.0000035" height="68.4564258" fill="white">
            <use xlink:href="#path-1"></use>
        </mask>
    </defs>
    <g id="Chef---Homepage-&amp;-Sign-Up" stroke="none" stroke-width="1" fill="none" fill-rule="evenodd">
        <g id="Chef---Start-Page" transform="translate(-675.000000, -2315.000000)">
            <g id="Group-4" transform="translate(0.000000, 2224.000000)">
                <g id="rest" transform="translate(675.000000, 91.000000)">
                    <rect id="Rectangle-2" fill="#666B6F" x="0" y="0" width="90" height="90" rx="15"></rect>
                    <g id="restaurant" transform="translate(0.000000, 11.000000)" fill="#FFFFFF">
                        <use id="Shape" stroke="#666B6F" mask="url(#mask-2)" stroke-width="3" xlink:href="#path-1"></use>
                        <path d="M19.90125,38.4011719 L16.8015234,38.4011719 C15.807832,38.4011719 15.0025781,39.1601953 15.0025781,40.1538867 C15.0025781,41.1475781 15.8080078,41.9066016 16.8015234,41.9066016 L19.90125,41.9066016 C20.8947656,41.9066016 21.7003711,41.1475781 21.7003711,40.1538867 C21.7003711,39.1601953 20.8947656,38.4011719 19.90125,38.4011719 Z" id="Shape"></path>
                    </g>
                </g>
            </g>
        </g>
    </g>
</svg>