<?xml version="1.0" encoding="UTF-8"?>
<svg width="10px" height="6px" viewBox="0 0 10 6" version="1.1" xmlns="http://www.w3.org/2000/svg" xmlns:xlink="http://www.w3.org/1999/xlink">
    <!-- Generator: Sketch 41.2 (35397) - http://www.bohemiancoding.com/sketch -->
    <title></title>
    <desc>Created with Sketch.</desc>
    <defs></defs>
    <g id="Symbols" stroke="none" stroke-width="1" fill="none" fill-rule="evenodd">
        <g id="Input-(Select)-White-Bg-–-40px" transform="translate(-401.000000, -18.000000)" fill="#666B6F">
            <g id="Input-White-Bg-–-40px">
                <path d="M411,18.5714286 C411,18.7261912 410.943453,18.8601185 410.830357,18.9732143 L406.830357,22.9732143 C406.717261,23.0863101 406.583334,23.1428571 406.428571,23.1428571 C406.273809,23.1428571 406.139882,23.0863101 406.026786,22.9732143 L402.026786,18.9732143 C401.91369,18.8601185 401.857143,18.7261912 401.857143,18.5714286 C401.857143,18.4166659 401.91369,18.2827387 402.026786,18.1696429 C402.139882,18.0565471 402.273809,18 402.428571,18 L410.428571,18 C410.583334,18 410.717261,18.0565471 410.830357,18.1696429 C410.943453,18.2827387 411,18.4166659 411,18.5714286 Z" id=""></path>
            </g>
        </g>
    </g>
</svg>